<svg xmlns="http://www.w3.org/2000/svg" viewBox="0 0 48 48" fill="none">
  <rect width="48" height="48" rx="12" fill="url(#bgGrad)"/>
  <rect x="10" y="14" width="14" height="26" rx="2" fill="white" opacity="0.95"/>
  <rect x="26" y="20" width="12" height="20" rx="2" fill="white" opacity="0.75"/>
  <rect x="12.5" y="17" width="3.5" height="3" rx="0.5" fill="url(#bgGrad)" opacity="0.7"/>
  <rect x="17.5" y="17" width="3.5" height="3" rx="0.5" fill="url(#bgGrad)" opacity="0.7"/>
  <rect x="12.5" y="22" width="3.5" height="3" rx="0.5" fill="url(#bgGrad)" opacity="0.7"/>
  <rect x="17.5" y="22" width="3.5" height="3" rx="0.5" fill="url(#bgGrad)" opacity="0.7"/>
  <rect x="12.5" y="27" width="3.5" height="3" rx="0.5" fill="url(#bgGrad)" opacity="0.7"/>
  <rect x="17.5" y="27" width="3.5" height="3" rx="0.5" fill="url(#bgGrad)" opacity="0.7"/>
  <rect x="28" y="23" width="3" height="2.5" rx="0.5" fill="url(#bgGrad)" opacity="0.6"/>
  <rect x="33" y="23" width="3" height="2.5" rx="0.5" fill="url(#bgGrad)" opacity="0.6"/>
  <rect x="28" y="27.5" width="3" height="2.5" rx="0.5" fill="url(#bgGrad)" opacity="0.6"/>
  <rect x="33" y="27.5" width="3" height="2.5" rx="0.5" fill="url(#bgGrad)" opacity="0.6"/>
  <rect x="14" y="34" width="5" height="6" rx="0.5" fill="url(#bgGrad)" opacity="0.8"/>
  <rect x="10" y="14" width="14" height="3" rx="1" fill="url(#goldGrad)"/>
  <rect x="26" y="20" width="12" height="2.5" rx="1" fill="url(#goldGrad)" opacity="0.8"/>
  <rect x="7" y="40" width="34" height="2" rx="1" fill="white" opacity="0.3"/>
  <defs>
    <linearGradient id="bgGrad" x1="0" y1="0" x2="48" y2="48" gradientUnits="userSpaceOnUse">
      <stop offset="0%" stop-color="#1d6ef5"/>
      <stop offset="100%" stop-color="#1558e1"/>
    </linearGradient>
    <linearGradient id="goldGrad" x1="0" y1="0" x2="48" y2="0" gradientUnits="userSpaceOnUse">
      <stop offset="0%" stop-color="#fcd34d"/>
      <stop offset="100%" stop-color="#f98c07"/>
    </linearGradient>
  </defs>
</svg>
